<svg id="Layer_1" height="512" viewBox="0 0 512 512" width="512" xmlns="http://www.w3.org/2000/svg" data-name="Layer 1"><path d="m507.888 63.717-22.171 22.17-59.647-59.643 22.175-22.175a14.045 14.045 0 0 1 19.773 0l39.87 39.875a14.045 14.045 0 0 1 0 19.773zm-79.91 300.554v-196.508l-243.042 243.048a8.518 8.518 0 0 1 -4.127 2.277l-92.272 21.153a8.493 8.493 0 0 1 -7.91-2.262 8.523 8.523 0 0 1 -2.32-7.9l20.548-92.867a8.536 8.536 0 0 1 2.31-4.19l243.043-243.044h-315.449a28.835 28.835 0 0 0 -28.8 28.8v370.422a28.832 28.832 0 0 0 28.8 28.8h251.127a30.618 30.618 0 0 0 7.484-.9v-93.85a45.912 45.912 0 0 1 45.857-45.868h93.942a30.378 30.378 0 0 0 .809-7.11zm-123.544 135.14v-82.162a28.84 28.84 0 0 1 28.793-28.8h82.491zm98.632-450.153 59.643 59.642 10.947-10.947-59.648-59.642zm-224.146 343.451-23.8-23.8 271.725-271.726 23.793 23.788zm-66.764-42.621 49.81 49.815-64.08 14.686 14.27-64.5zm7.111-17.026 271.733-271.738 23.793 23.788-271.747 271.728z" fill="#03a9f4" fill-rule="evenodd"/></svg>