<?xml version="1.0"?>
<svg xmlns="http://www.w3.org/2000/svg" xmlns:xlink="http://www.w3.org/1999/xlink" xmlns:svgjs="http://svgjs.com/svgjs" version="1.1" width="512" height="512" x="0" y="0" viewBox="0 0 512 512" style="enable-background:new 0 0 512 512" xml:space="preserve" class=""><g><g xmlns="http://www.w3.org/2000/svg"><path d="m282.983 127.553 81.847-98.106h-364.83v98.106zm-91.65-64.61h30v30.167h-30zm-64.5 0h30v30.167h-30zm-64.5 0h30v30.167h-30z" fill="#525ed3" data-original="#000000" class=""/><path d="m403.899 29.447-106.875 128.106h-297.024v325h512v-453.106zm-123.1 306.053c0 30.603-24.897 55.5-55.5 55.5s-55.5-24.897-55.5-55.5v-93.5h30v93.5c0 14.061 11.439 25.5 25.5 25.5s25.5-11.439 25.5-25.5v-93.5h30zm61.402 54.833h-30v-148.333h30z" fill="#525ed3" data-original="#000000" class=""/></g></g></svg>
