<?xml version="1.0"?>
<svg xmlns="http://www.w3.org/2000/svg" xmlns:xlink="http://www.w3.org/1999/xlink" xmlns:svgjs="http://svgjs.com/svgjs" version="1.1" width="512" height="512" x="0" y="0" viewBox="0 0 512 512" style="enable-background:new 0 0 512 512" xml:space="preserve" class=""><g><g><path d="m500.743 261.769-109.743-36.581v-170.188c0-6.456-4.132-12.188-10.257-14.23l-120-40c-3.079-1.026-6.408-1.024-9.487 0l-120 40c-6.125 2.041-10.256 7.773-10.256 14.23v170.188l-109.744 36.581c-6.125 2.042-10.256 7.774-10.256 14.231v181c0 6.456 4.131 12.188 10.256 14.23l120 40c1.54.513 3.142.77 4.744.77s3.204-.257 4.744-.77l115.256-38.419 115.257 38.419c1.539.513 3.142.77 4.743.77s3.204-.257 4.743-.77l120-40c6.125-2.042 10.257-7.774 10.257-14.23v-181c0-6.457-4.132-12.189-10.257-14.231zm-124.743 38.419-72.566-24.188 72.566-24.189 72.565 24.189zm-240-48.377 72.565 24.189-72.565 24.188-72.566-24.188zm105-146v149.377l-90-30v-149.377zm120 119.377-90 30v-149.377l90-30zm-210 101.623 90-30v149.377l-90 30zm105-296 72.565 24.189-72.565 24.188-72.566-24.188zm-225 266 90 30v149.377l-90-30zm240 0 90 30v149.377l-90-30zm120 179.377v-149.377l90-30v149.377z" fill="#ffffff" data-original="#000000" class=""/></g></g></svg>
