<?xml version="1.0"?>
<svg xmlns="http://www.w3.org/2000/svg" xmlns:xlink="http://www.w3.org/1999/xlink" xmlns:svgjs="http://svgjs.com/svgjs" version="1.1" width="512" height="512" x="0" y="0" viewBox="0 0 64 64" style="enable-background:new 0 0 512 512" xml:space="preserve"><g><g xmlns="http://www.w3.org/2000/svg" id="Fullscreen-Arrow-Arrows-Direction-User_Interface" data-name="Fullscreen-Arrow-Arrows-Direction-User Interface"><path d="m61 45v14a2.006 2.006 0 0 1 -2 2h-14a3 3 0 0 1 0-6h5.76l-14.51-14.51a3 3 0 0 1 4.24-4.24l14.51 14.51v-5.76a3 3 0 0 1 6 0z" fill="#ffffff" data-original="#000000"/><path d="m61 5v14a3 3 0 0 1 -6 0v-5.76l-14.51 14.51a3 3 0 1 1 -4.24-4.24l14.51-14.51h-5.76a3 3 0 0 1 0-6h14a2.006 2.006 0 0 1 2 2z" fill="#ffffff" data-original="#000000"/><path d="m27.75 23.51a3 3 0 1 1 -4.24 4.24l-14.51-14.51v5.76a3 3 0 0 1 -6 0v-14a2.006 2.006 0 0 1 2-2h14a3 3 0 0 1 0 6h-5.76z" fill="#ffffff" data-original="#000000"/><path d="m27.75 36.25a2.994 2.994 0 0 1 0 4.24l-14.51 14.51h5.76a3 3 0 0 1 0 6h-14a2.006 2.006 0 0 1 -2-2v-14a3 3 0 0 1 6 0v5.76l14.51-14.51a3 3 0 0 1 4.24 0z" fill="#ffffff" data-original="#000000"/></g></g></svg>
