<?xml version="1.0"?>
<svg xmlns="http://www.w3.org/2000/svg" xmlns:xlink="http://www.w3.org/1999/xlink" xmlns:svgjs="http://svgjs.com/svgjs" version="1.1" width="512" height="512" x="0" y="0" viewBox="0 0 32 32" style="enable-background:new 0 0 512 512" xml:space="preserve" class=""><g><path xmlns="http://www.w3.org/2000/svg" d="m13.145 31.938h-12.145c-.553 0-1-.447-1-1s.447-1 1-1h12.145c.553 0 1 .447 1 1s-.448 1-1 1zm1-7.052c0-.553-.447-1-1-1h-12.145c-.553 0-1 .447-1 1s.447 1 1 1h12.145c.552 0 1-.448 1-1zm.189-6.052c0-.553-.447-1-1-1h-12.334c-.553 0-1 .447-1 1s.447 1 1 1h12.334c.553 0 1-.447 1-1zm0-7.456v-8.334c0-1.654-1.346-3-3-3h-8.334c-1.654 0-3 1.346-3 3v8.334c0 1.654 1.346 3 3 3h8.334c1.654 0 3-1.346 3-3zm17.666 0v-8.334c0-1.654-1.346-3-3-3h-8.334c-1.654 0-3 1.346-3 3v8.334c0 1.654 1.346 3 3 3h8.334c1.654 0 3-1.346 3-3zm0 17.603v-8.334c0-1.654-1.346-3-3-3h-8.334c-1.654 0-3 1.346-3 3v8.334c0 1.654 1.346 3 3 3h8.334c1.654 0 3-1.345 3-3z" fill="#ffffff" data-original="#000000" class=""/></g></svg>
