<svg width="24" height="24" viewBox="0 0 24 24" fill="none" xmlns="http://www.w3.org/2000/svg">
<path fill-rule="evenodd" clip-rule="evenodd" d="M14.1043 3.48156C13.3724 3.17099 12.569 3 11.7292 3C8.62788 3 6.02254 5.33189 5.68006 8.4142L5.42826 10.6804L5.42201 10.7363C5.30112 11.7897 4.95822 12.8056 4.41594 13.7168L4.38707 13.765L3.80904 14.7284L3.79511 14.7516C3.54468 15.169 3.33723 15.5147 3.2024 15.801C3.06631 16.0899 2.96141 16.4025 3.01368 16.7338C3.0702 17.0919 3.25453 17.4175 3.53257 17.6502C3.78975 17.8655 4.11173 17.9364 4.42953 17.9683C4.7444 18 5.1476 18 5.63432 18H5.66139H17.7969H17.824C18.3107 18 18.7139 18 19.0288 17.9683C19.3466 17.9364 19.6686 17.8655 19.9258 17.6502C20.2038 17.4175 20.3881 17.0919 20.4446 16.7338C20.4969 16.4025 20.392 16.0899 20.2559 15.801C20.1211 15.5147 19.9137 15.169 19.6633 14.7517L19.6632 14.7516L19.6493 14.7284L19.0713 13.765L19.0424 13.7168C18.5001 12.8056 18.1572 11.7897 18.0363 10.7363L18.0301 10.6804L17.9876 10.298C17.6747 10.4016 17.3446 10.4677 17.0028 10.4908L17.0362 10.7909L17.0428 10.8503C17.1798 12.0442 17.5685 13.1955 18.1831 14.2282L18.2138 14.2795L18.7918 15.2429C19.0597 15.6894 19.2405 15.9918 19.3512 16.2271C19.4633 16.4649 19.4612 16.5504 19.4569 16.5779C19.438 16.6973 19.3766 16.8058 19.2839 16.8834C19.2625 16.9013 19.1903 16.947 18.9287 16.9734C18.67 16.9994 18.3176 17 17.7969 17H5.66139C5.14071 17 4.78836 16.9994 4.52963 16.9734C4.26801 16.947 4.19582 16.9013 4.17443 16.8834C4.08175 16.8058 4.0203 16.6973 4.00146 16.5779C3.99712 16.5504 3.99505 16.4649 4.10708 16.2271C4.21788 15.9918 4.39864 15.6894 4.66653 15.2429L5.24457 14.2795L5.27528 14.2282C5.88987 13.1955 6.27848 12.0442 6.41549 10.8503L6.42215 10.7909L6.67395 8.52463C6.96016 5.94875 9.13743 4 11.7292 4C12.3128 4 12.8755 4.09884 13.4003 4.28142C13.5987 3.98435 13.8358 3.71532 14.1043 3.48156ZM15.9184 4.67115C15.6036 4.81089 15.3316 5.02951 15.1275 5.30192C16.0223 6.1054 16.6335 7.22482 16.7815 8.49933C17.1361 8.49021 17.4678 8.3888 17.7533 8.21822C17.5525 6.82034 16.8841 5.58721 15.9184 4.67115Z" fill="#172B4D"/>
<path d="M9.79727 20.1294C9.91122 20.2357 10.1623 20.3297 10.5116 20.3967C10.8609 20.4637 11.2889 20.5 11.7291 20.5C12.1694 20.5 12.5974 20.4637 12.9466 20.3967C13.2959 20.3297 13.547 20.2357 13.661 20.1294" stroke="#172B4D" stroke-linecap="round"/>
<circle cx="16.7291" cy="6.5" r="2" fill="#172B4D"/>
</svg>
