<svg width="24" height="24" viewBox="0 0 24 24" fill="none" xmlns="http://www.w3.org/2000/svg">
<path d="M7.35599 10.942C7.30967 10.8943 7.25425 10.8564 7.19302 10.8305C7.13178 10.8046 7.06598 10.7913 6.99949 10.7913C6.93301 10.7913 6.8672 10.8046 6.80597 10.8305C6.74473 10.8564 6.68932 10.8943 6.64299 10.942L5.94299 11.643C5.89605 11.6893 5.85873 11.7445 5.83316 11.8053C5.80759 11.8661 5.79429 11.9314 5.79401 11.9974C5.79373 12.0633 5.80648 12.1287 5.83154 12.1897C5.85659 12.2508 5.89345 12.3062 5.93999 12.353L9.64599 16.06C9.73941 16.1533 9.86586 16.2059 9.99788 16.2065C10.1299 16.207 10.2568 16.1555 10.351 16.063L18.063 8.35098C18.11 8.30461 18.1473 8.24928 18.1725 8.18825C18.1977 8.12722 18.2104 8.06174 18.2099 7.99571C18.2093 7.92967 18.1955 7.86442 18.1692 7.80382C18.143 7.74323 18.1048 7.68853 18.057 7.64298L17.357 6.94298C17.3102 6.89599 17.2545 6.85871 17.1933 6.83327C17.132 6.80783 17.0663 6.79474 17 6.79474C16.9337 6.79474 16.868 6.80783 16.8067 6.83327C16.7455 6.85871 16.6898 6.89599 16.643 6.94298L10.357 13.229C10.2622 13.3231 10.1341 13.3759 10.0005 13.3759C9.86693 13.3759 9.73878 13.3231 9.64399 13.229L7.35599 10.942Z" fill="#172B4D"/>
</svg>
