<svg width="24" height="24" viewBox="0 0 24 24" fill="none" xmlns="http://www.w3.org/2000/svg">
<path fill-rule="evenodd" clip-rule="evenodd" d="M20 5C20 4.44772 19.5523 4 19 4H5C4.44772 4 4 4.44772 4 5V6.58579C4 6.851 4.10536 7.10536 4.29289 7.29289L8.7071 11.7071C8.89464 11.8946 8.99999 12.149 8.99999 12.4142V19.3063C8.99999 19.6476 9.33434 19.8886 9.65811 19.7806L14.6581 18.114C14.8623 18.0459 15 17.8548 15 17.6396V12.4142C15 12.149 15.1054 11.8946 15.2929 11.7071L19.7071 7.29289C19.8946 7.10536 20 6.851 20 6.58579V5Z" fill="#172B4D"/>
</svg>
