<svg width="24" height="24" viewBox="0 0 24 24" fill="none" xmlns="http://www.w3.org/2000/svg">
<path d="M12.005 8.18707L5.55202 12.0521C5.32447 12.1884 5.05208 12.2287 4.79478 12.1642C4.53748 12.0997 4.31635 11.9356 4.18002 11.7081C4.0437 11.4805 4.00336 11.2081 4.06787 10.9508C4.13239 10.6935 4.29647 10.4724 4.52402 10.3361L11.494 6.16207C11.6499 6.06874 11.8282 6.01961 12.0098 6.01996C12.1914 6.02031 12.3696 6.07013 12.525 6.16407L19.431 10.3381C19.5434 10.406 19.6414 10.4955 19.7192 10.6013C19.7971 10.7071 19.8533 10.8272 19.8847 10.9547C19.9162 11.0823 19.9222 11.2147 19.9024 11.3446C19.8826 11.4745 19.8375 11.5992 19.7695 11.7116C19.7016 11.824 19.6121 11.9219 19.5063 11.9998C19.4005 12.0776 19.2804 12.1338 19.1529 12.1653C19.0253 12.1967 18.8929 12.2027 18.763 12.183C18.6331 12.1632 18.5084 12.118 18.396 12.0501L12.006 8.18707H12.005Z" fill="#172B4D"/>
<path d="M5.55203 18.054C5.43934 18.125 5.31359 18.1728 5.18218 18.1945C5.05077 18.2163 4.91634 18.2116 4.78678 18.1807C4.65721 18.1497 4.53513 18.0933 4.4277 18.0145C4.32027 17.9358 4.22966 17.8363 4.16118 17.7221C4.0927 17.6079 4.04773 17.4811 4.02891 17.3492C4.0101 17.2173 4.01782 17.0831 4.05162 16.9542C4.08542 16.8254 4.14462 16.7046 4.22575 16.5989C4.30687 16.4933 4.40828 16.4049 4.52403 16.339L11.494 12.165C11.6499 12.0717 11.8282 12.0225 12.0098 12.0229C12.1914 12.0232 12.3696 12.0731 12.525 12.167L19.431 16.341C19.5459 16.4077 19.6463 16.4966 19.7264 16.6026C19.8065 16.7085 19.8646 16.8294 19.8975 16.958C19.9304 17.0867 19.9373 17.2206 19.9179 17.352C19.8985 17.4834 19.8531 17.6096 19.7843 17.7232C19.7156 17.8369 19.6249 17.9357 19.5175 18.0139C19.4102 18.0921 19.2883 18.1481 19.1591 18.1788C19.0299 18.2094 18.8958 18.2139 18.7648 18.1921C18.6338 18.1704 18.5084 18.1227 18.396 18.052L12.006 14.19L5.55203 18.054Z" fill="#172B4D"/>
</svg>
