<svg width="24" height="24" viewBox="0 0 24 24" fill="none" xmlns="http://www.w3.org/2000/svg">
<path fill-rule="evenodd" clip-rule="evenodd" d="M13.5 10.5V6C13.5 5.60218 13.342 5.22064 13.0607 4.93934C12.7794 4.65804 12.3978 4.5 12 4.5C11.6022 4.5 11.2206 4.65804 10.9393 4.93934C10.658 5.22064 10.5 5.60218 10.5 6V10.5H6C5.60218 10.5 5.22064 10.658 4.93934 10.9393C4.65804 11.2206 4.5 11.6022 4.5 12C4.5 12.3978 4.65804 12.7794 4.93934 13.0607C5.22064 13.342 5.60218 13.5 6 13.5H10.5V18C10.5 18.3978 10.658 18.7794 10.9393 19.0607C11.2206 19.342 11.6022 19.5 12 19.5C12.3978 19.5 12.7794 19.342 13.0607 19.0607C13.342 18.7794 13.5 18.3978 13.5 18V13.5H18C18.3978 13.5 18.7794 13.342 19.0607 13.0607C19.342 12.7794 19.5 12.3978 19.5 12C19.5 11.6022 19.342 11.2206 19.0607 10.9393C18.7794 10.658 18.3978 10.5 18 10.5H13.5ZM3 0H21C21.7956 0 22.5587 0.316071 23.1213 0.87868C23.6839 1.44129 24 2.20435 24 3V21C24 21.7956 23.6839 22.5587 23.1213 23.1213C22.5587 23.6839 21.7956 24 21 24H3C2.20435 24 1.44129 23.6839 0.87868 23.1213C0.316071 22.5587 0 21.7956 0 21V3C0 2.20435 0.316071 1.44129 0.87868 0.87868C1.44129 0.316071 2.20435 0 3 0V0Z" fill="#172B4D"/>
</svg>
