<svg width="24" height="24" viewBox="0 0 24 24" fill="none" xmlns="http://www.w3.org/2000/svg">
<path d="M7.35599 10.9419C7.30967 10.8942 7.25425 10.8563 7.19302 10.8304C7.13178 10.8045 7.06598 10.7912 6.99949 10.7912C6.93301 10.7912 6.8672 10.8045 6.80597 10.8304C6.74473 10.8563 6.68932 10.8942 6.64299 10.9419L5.94299 11.6429C5.89605 11.6893 5.85873 11.7444 5.83316 11.8052C5.80759 11.8661 5.79429 11.9313 5.79401 11.9973C5.79373 12.0633 5.80648 12.1286 5.83154 12.1897C5.85659 12.2507 5.89345 12.3062 5.93999 12.3529L9.64599 16.0599C9.73941 16.1532 9.86586 16.2058 9.99788 16.2064C10.1299 16.207 10.2568 16.1554 10.351 16.0629L18.063 8.35091C18.11 8.30455 18.1473 8.24922 18.1725 8.18819C18.1977 8.12716 18.2104 8.06168 18.2099 7.99565C18.2093 7.92961 18.1955 7.86436 18.1692 7.80376C18.143 7.74317 18.1048 7.68847 18.057 7.64292L17.357 6.94291C17.3102 6.89593 17.2545 6.85865 17.1933 6.83321C17.132 6.80777 17.0663 6.79468 17 6.79468C16.9337 6.79468 16.868 6.80777 16.8067 6.83321C16.7455 6.85865 16.6898 6.89593 16.643 6.94291L10.357 13.2289C10.2622 13.323 10.1341 13.3758 10.0005 13.3758C9.86693 13.3758 9.73878 13.323 9.64399 13.2289L7.35599 10.9419V10.9419Z" fill="#36B37E"/>
</svg>
