<svg width="24" height="24" viewBox="0 0 24 24" fill="none" xmlns="http://www.w3.org/2000/svg">
<path d="M12.005 8.18713L5.55202 12.0521C5.32447 12.1885 5.05208 12.2288 4.79478 12.1643C4.53748 12.0998 4.31635 11.9357 4.18002 11.7081C4.0437 11.4806 4.00336 11.2082 4.06787 10.9509C4.13239 10.6936 4.29647 10.4725 4.52402 10.3361L11.494 6.16213C11.6499 6.0688 11.8282 6.01967 12.0098 6.02002C12.1914 6.02037 12.3696 6.07019 12.525 6.16413L19.431 10.3381C19.5434 10.4061 19.6414 10.4955 19.7192 10.6013C19.7971 10.7071 19.8533 10.8272 19.8847 10.9548C19.9162 11.0823 19.9222 11.2148 19.9024 11.3447C19.8826 11.4745 19.8375 11.5992 19.7695 11.7116C19.7016 11.824 19.6121 11.922 19.5063 11.9998C19.4005 12.0777 19.2804 12.1339 19.1529 12.1653C19.0253 12.1968 18.8929 12.2028 18.763 12.183C18.6331 12.1632 18.5084 12.1181 18.396 12.0501L12.006 8.18713H12.005Z" fill="#36B37E"/>
<path d="M5.55203 18.0541C5.43934 18.1251 5.31359 18.1729 5.18218 18.1946C5.05077 18.2164 4.91634 18.2116 4.78678 18.1807C4.65721 18.1498 4.53513 18.0933 4.4277 18.0146C4.32027 17.9358 4.22966 17.8364 4.16118 17.7222C4.0927 17.6079 4.04773 17.4811 4.02891 17.3493C4.0101 17.2174 4.01782 17.0831 4.05162 16.9543C4.08542 16.8254 4.14462 16.7046 4.22575 16.599C4.30687 16.4934 4.40828 16.405 4.52403 16.3391L11.494 12.1651C11.6499 12.0717 11.8282 12.0226 12.0098 12.023C12.1914 12.0233 12.3696 12.0731 12.525 12.1671L19.431 16.3411C19.5459 16.4078 19.6463 16.4967 19.7264 16.6026C19.8065 16.7086 19.8646 16.8294 19.8975 16.9581C19.9304 17.0868 19.9373 17.2207 19.9179 17.3521C19.8985 17.4835 19.8531 17.6097 19.7843 17.7233C19.7156 17.8369 19.6249 17.9358 19.5175 18.014C19.4102 18.0922 19.2883 18.1482 19.1591 18.1788C19.0299 18.2094 18.8958 18.214 18.7648 18.1922C18.6338 18.1704 18.5084 18.1228 18.396 18.0521L12.006 14.1901L5.55203 18.0541V18.0541Z" fill="#36B37E"/>
</svg>
