<svg width="24" height="24" viewBox="0 0 24 24" fill="none" xmlns="http://www.w3.org/2000/svg">
<path d="M8.64645 6.35355C8.45118 6.15829 8.45118 5.84171 8.64645 5.64645C8.84171 5.45118 9.15829 5.45118 9.35355 5.64645L8.64645 6.35355ZM15 12L15.3536 11.6464L15.7071 12L15.3536 12.3536L15 12ZM9.35355 18.3536C9.15829 18.5488 8.84171 18.5488 8.64645 18.3536C8.45118 18.1583 8.45118 17.8417 8.64645 17.6464L9.35355 18.3536ZM9.35355 5.64645L15.3536 11.6464L14.6464 12.3536L8.64645 6.35355L9.35355 5.64645ZM15.3536 12.3536L9.35355 18.3536L8.64645 17.6464L14.6464 11.6464L15.3536 12.3536Z" fill="#36B37E"/>
</svg>
